<svg version="1.1" viewBox="0.0 0.0 960.0 540.0" fill="none" stroke="none" stroke-linecap="square" stroke-miterlimit="10" xmlns:xlink="http://www.w3.org/1999/xlink" xmlns="http://www.w3.org/2000/svg"><clipPath id="g2b19892acf6_0_40.0"><path d="m0 0l960.0 0l0 540.0l-960.0 0l0 -540.0z" clip-rule="nonzero"/></clipPath><g clip-path="url(#g2b19892acf6_0_40.0)"><path fill="#000000" d="m0 0l960.0 0l0 540.0l-960.0 0z" fill-rule="evenodd"/><path fill="#000000" fill-opacity="0.0" d="m154.07874 115.55905l0 316.8819" fill-rule="evenodd"/><path stroke="#ffffff" stroke-width="1.0" stroke-linejoin="round" stroke-linecap="butt" d="m154.07874 115.55905l0 316.8819" fill-rule="evenodd"/><path fill="#000000" fill-opacity="0.0" d="m146.07874 424.44095l659.8425 0" fill-rule="evenodd"/><path stroke="#ffffff" stroke-width="1.0" stroke-linejoin="round" stroke-linecap="butt" d="m146.07874 424.44095l659.8425 0" fill-rule="evenodd"/><path fill="#000000" fill-opacity="0.0" d="m0 231.48032l154.07874 0l0 77.03937l-154.07874 0z" fill-rule="evenodd"/><path fill="#ffffff" d="m109.07219 266.05l-1.21875 0l0 1.703125l-1.84375 0l0 0.9375l1.84375 0l0 3.828125q0 0.640625 0.171875 1.109375q0.1875 0.453125 0.484375 0.75q0.296875 0.28125 0.703125 0.421875q0.40625 0.125 0.875 0.125q0.28125 0 0.5625 -0.03125q0.28125 -0.015625 0.53125 -0.0625q0.265625 -0.046875 0.46875 -0.109375q0.21875 -0.078125 0.375 -0.171875l-0.171875 -0.84375q-0.109375 0.015625 -0.28125 0.0625q-0.171875 0.03125 -0.375 0.0625q-0.203125 0.03125 -0.40625 0.0625q-0.203125 0.015625 -0.40625 0.015625q-0.265625 0 -0.5 -0.0625q-0.234375 -0.0625 -0.421875 -0.234375q-0.1875 -0.15625 -0.296875 -0.421875q-0.09375 -0.265625 -0.09375 -0.671875l0 -3.828125l2.6875 0l0 -0.9375l-2.6875 0l0 -1.703125zm9.763809 1.578125q-0.765625 0 -1.375 0.34375q-0.59375 0.328125 -1.03125 0.90625l0 -0.171875l-0.0625 -0.953125l-1.140625 0l0 7.046875l1.203125 0l0 -4.515625q0.125 -0.328125 0.296875 -0.59375q0.1875 -0.265625 0.421875 -0.4375q0.265625 -0.21875 0.625 -0.3125q0.359375 -0.109375 0.8125 -0.109375q0.34375 0 0.65625 0.03125q0.3125 0.03125 0.65625 0.109375l0.171875 -1.171875q-0.1875 -0.078125 -0.546875 -0.125q-0.359375 -0.046875 -0.6875 -0.046875zm8.013809 7.171875l1.09375 0l0 -7.046875l-1.203125 0l0 5.0625q-0.09375 0.21875 -0.25 0.421875q-0.140625 0.1875 -0.34375 0.3125q-0.234375 0.171875 -0.546875 0.265625q-0.3125 0.09375 -0.71875 0.09375q-0.34375 0 -0.609375 -0.078125q-0.265625 -0.09375 -0.453125 -0.328125q-0.171875 -0.21875 -0.265625 -0.59375q-0.09375 -0.375 -0.09375 -0.953125l0 -4.203125l-1.203125 0l0 4.1875q0 0.796875 0.171875 1.359375q0.171875 0.5625 0.484375 0.921875q0.328125 0.359375 0.765625 0.53125q0.453125 0.171875 1.015625 0.171875q0.6875 0 1.203125 -0.28125q0.53125 -0.296875 0.890625 -0.8125l0.0625 0.96875zm6.216934 -8.75l-1.21875 0l0 1.703125l-1.84375 0l0 0.9375l1.84375 0l0 3.828125q0 0.640625 0.171875 1.109375q0.1875 0.453125 0.484375 0.75q0.296875 0.28125 0.703125 0.421875q0.40625 0.125 0.875 0.125q0.28125 0 0.5625 -0.03125q0.28125 -0.015625 0.53125 -0.0625q0.265625 -0.046875 0.46875 -0.109375q0.21875 -0.078125 0.375 -0.171875l-0.171875 -0.84375q-0.109375 0.015625 -0.28125 0.0625q-0.171875 0.03125 -0.375 0.0625q-0.203125 0.03125 -0.40625 0.0625q-0.203125 0.015625 -0.40625 0.015625q-0.265625 0 -0.5 -0.0625q-0.234375 -0.0625 -0.421875 -0.234375q-0.1875 -0.15625 -0.296875 -0.421875q-0.09375 -0.265625 -0.09375 -0.671875l0 -3.828125l2.6875 0l0 -0.9375l-2.6875 0l0 -1.703125zm6.357559 2.75l0 -4.0l-1.21875 0l0 10.0l1.21875 0l0 -5.109375q0.125 -0.21875 0.28125 -0.390625q0.171875 -0.171875 0.375 -0.296875q0.234375 -0.171875 0.53125 -0.265625q0.296875 -0.09375 0.625 -0.09375q0.390625 0 0.6875 0.125q0.3125 0.109375 0.515625 0.328125q0.1875 0.203125 0.28125 0.53125q0.109375 0.3125 0.109375 0.734375l0 4.4375l1.203125 0l0 -4.4375q0 -0.703125 -0.171875 -1.21875q-0.171875 -0.515625 -0.5 -0.859375q-0.3125 -0.34375 -0.765625 -0.5q-0.453125 -0.15625 -1.0 -0.15625q-0.421875 0 -0.796875 0.125q-0.375 0.109375 -0.6875 0.34375q-0.203125 0.140625 -0.375 0.328125q-0.171875 0.171875 -0.3125 0.375z" fill-rule="nonzero"/><path fill="#000000" fill-opacity="0.0" d="m786.6457 134.83464c-155.7323 0 -233.59845 69.99213 -311.4646 139.98427c-77.86612 69.99213 -155.73227 139.98425 -311.46454 139.98425" fill-rule="evenodd"/><path stroke="#ffffff" stroke-width="1.0" stroke-linejoin="round" stroke-linecap="butt" d="m786.6457 134.83464c-155.7323 0 -233.59845 69.99213 -311.4646 139.98427c-77.86612 69.99213 -155.73227 139.98425 -311.46454 139.98425" fill-rule="evenodd"/><path fill="#000000" fill-opacity="0.0" d="m325.92126 424.44095l308.15747 0l0 77.03937l-308.15747 0z" fill-rule="evenodd"/><path fill="#ffffff" d="m457.81885 444.36594q0 0.171875 -0.0625 0.328125q-0.0625 0.140625 -0.1875 0.265625q-0.203125 0.203125 -0.5625 0.328125q-0.359375 0.109375 -0.84375 0.109375q-0.296875 0 -0.609375 -0.0625q-0.3125 -0.0625 -0.578125 -0.21875q-0.25 -0.15625 -0.421875 -0.40625q-0.171875 -0.265625 -0.203125 -0.640625l-1.203125 0q0 0.453125 0.203125 0.875q0.203125 0.40625 0.59375 0.71875q0.390625 0.328125 0.9375 0.515625q0.5625 0.1875 1.28125 0.1875q0.625 0 1.15625 -0.140625q0.53125 -0.15625 0.90625 -0.421875q0.375 -0.28125 0.578125 -0.65625q0.21875 -0.390625 0.21875 -0.859375q0 -0.4375 -0.1875 -0.765625q-0.1875 -0.328125 -0.53125 -0.59375q-0.359375 -0.234375 -0.875 -0.40625q-0.515625 -0.1875 -1.15625 -0.328125q-0.5 -0.09375 -0.828125 -0.203125q-0.3125 -0.109375 -0.5 -0.234375q-0.203125 -0.125 -0.28125 -0.28125q-0.078125 -0.171875 -0.078125 -0.375q0 -0.203125 0.09375 -0.390625q0.109375 -0.203125 0.296875 -0.34375q0.1875 -0.140625 0.46875 -0.21875q0.296875 -0.09375 0.6875 -0.09375q0.375 0 0.671875 0.109375q0.296875 0.109375 0.5 0.265625q0.203125 0.171875 0.3125 0.390625q0.125 0.21875 0.125 0.453125l1.203125 0q0 -0.46875 -0.203125 -0.859375q-0.1875 -0.40625 -0.546875 -0.703125q-0.375 -0.296875 -0.890625 -0.46875q-0.515625 -0.171875 -1.171875 -0.171875q-0.609375 0 -1.109375 0.171875q-0.5 0.15625 -0.875 0.4375q-0.359375 0.28125 -0.5625 0.65625q-0.203125 0.375 -0.203125 0.796875q0 0.4375 0.1875 0.765625q0.203125 0.328125 0.5625 0.5625q0.359375 0.25 0.84375 0.4375q0.5 0.171875 1.109375 0.296875q0.5 0.09375 0.828125 0.21875q0.328125 0.109375 0.53125 0.25q0.203125 0.15625 0.28125 0.328125q0.09375 0.171875 0.09375 0.375zm7.9513245 1.875l1.09375 0l0 -7.046875l-1.203125 0l0 5.0625q-0.09375 0.21875 -0.25 0.421875q-0.140625 0.1875 -0.34375 0.3125q-0.234375 0.171875 -0.546875 0.265625q-0.3125 0.09375 -0.71875 0.09375q-0.34375 0 -0.609375 -0.078125q-0.265625 -0.09375 -0.453125 -0.328125q-0.171875 -0.21875 -0.265625 -0.59375q-0.09375 -0.375 -0.09375 -0.953125l0 -4.203125l-1.203125 0l0 4.1875q0 0.796875 0.171875 1.359375q0.171875 0.5625 0.484375 0.921875q0.328125 0.359375 0.765625 0.53125q0.453125 0.171875 1.015625 0.171875q0.6875 0 1.203125 -0.28125q0.53125 -0.296875 0.890625 -0.8125l0.0625 0.96875zm6.357544 -0.84375q-0.5625 0 -0.9375 -0.21875q-0.375 -0.234375 -0.609375 -0.59375q-0.234375 -0.359375 -0.34375 -0.8125q-0.09375 -0.453125 -0.09375 -0.921875l0 -0.265625q0 -0.453125 0.09375 -0.90625q0.109375 -0.453125 0.34375 -0.8125q0.234375 -0.359375 0.609375 -0.578125q0.390625 -0.234375 0.9375 -0.234375q0.375 0 0.6875 0.125q0.3125 0.125 0.546875 0.34375q0.21875 0.21875 0.34375 0.5q0.140625 0.28125 0.15625 0.59375l1.140625 0q0 -0.53125 -0.21875 -1.0q-0.21875 -0.46875 -0.59375 -0.8125q-0.375 -0.34375 -0.90625 -0.53125q-0.53125 -0.203125 -1.15625 -0.203125q-0.796875 0 -1.390625 0.296875q-0.59375 0.28125 -1.0 0.75q-0.40625 0.5 -0.609375 1.140625q-0.1875 0.625 -0.1875 1.328125l0 0.265625q0 0.703125 0.1875 1.34375q0.203125 0.640625 0.609375 1.109375q0.40625 0.5 1.0 0.78125q0.59375 0.28125 1.390625 0.28125q0.5625 0 1.078125 -0.1875q0.515625 -0.1875 0.921875 -0.515625q0.390625 -0.3125 0.625 -0.734375q0.234375 -0.4375 0.25 -0.90625l-1.140625 0q-0.015625 0.296875 -0.15625 0.546875q-0.140625 0.25 -0.390625 0.421875q-0.234375 0.203125 -0.546875 0.3125q-0.3125 0.09375 -0.640625 0.09375zm7.9981995 0q-0.5625 0 -0.9375 -0.21875q-0.375 -0.234375 -0.609375 -0.59375q-0.234375 -0.359375 -0.34375 -0.8125q-0.09375 -0.453125 -0.09375 -0.921875l0 -0.265625q0 -0.453125 0.09375 -0.90625q0.109375 -0.453125 0.34375 -0.8125q0.234375 -0.359375 0.609375 -0.578125q0.390625 -0.234375 0.9375 -0.234375q0.375 0 0.6875 0.125q0.3125 0.125 0.546875 0.34375q0.21875 0.21875 0.34375 0.5q0.140625 0.28125 0.15625 0.59375l1.140625 0q0 -0.53125 -0.21875 -1.0q-0.21875 -0.46875 -0.59375 -0.8125q-0.375 -0.34375 -0.90625 -0.53125q-0.53125 -0.203125 -1.15625 -0.203125q-0.796875 0 -1.390625 0.296875q-0.59375 0.28125 -1.0 0.75q-0.40625 0.5 -0.609375 1.140625q-0.1875 0.625 -0.1875 1.328125l0 0.265625q0 0.703125 0.1875 1.34375q0.203125 0.640625 0.609375 1.109375q0.40625 0.5 1.0 0.78125q0.59375 0.28125 1.390625 0.28125q0.5625 0 1.078125 -0.1875q0.515625 -0.1875 0.921875 -0.515625q0.390625 -0.3125 0.625 -0.734375q0.234375 -0.4375 0.25 -0.90625l-1.140625 0q-0.015625 0.296875 -0.15625 0.546875q-0.140625 0.25 -0.390625 0.421875q-0.234375 0.203125 -0.546875 0.3125q-0.3125 0.09375 -0.640625 0.09375zm8.123169 0.96875q1.015625 0 1.71875 -0.40625q0.703125 -0.421875 1.046875 -0.953125l-0.734375 -0.5625q-0.328125 0.421875 -0.828125 0.6875q-0.5 0.25 -1.140625 0.25q-0.5 0 -0.90625 -0.171875q-0.390625 -0.1875 -0.671875 -0.5q-0.28125 -0.296875 -0.453125 -0.6875q-0.15625 -0.390625 -0.203125 -0.90625l0 -0.046875l5.03125 0l0 -0.546875q0 -0.734375 -0.1875 -1.359375q-0.1875 -0.640625 -0.5625 -1.109375q-0.375 -0.453125 -0.953125 -0.71875q-0.5625 -0.265625 -1.3125 -0.265625q-0.609375 0 -1.1875 0.25q-0.578125 0.25 -1.03125 0.703125q-0.453125 0.46875 -0.734375 1.140625q-0.265625 0.671875 -0.265625 1.53125l0 0.265625q0 0.75 0.25 1.375q0.25 0.625 0.6875 1.078125q0.453125 0.453125 1.0625 0.703125q0.625 0.25 1.375 0.25zm-0.15625 -6.3125q0.453125 0 0.78125 0.171875q0.34375 0.171875 0.5625 0.4375q0.21875 0.28125 0.34375 0.65625q0.125 0.375 0.125 0.703125l0 0.046875l-3.78125 0q0.0625 -0.484375 0.234375 -0.859375q0.1875 -0.375 0.453125 -0.625q0.265625 -0.265625 0.578125 -0.390625q0.328125 -0.140625 0.703125 -0.140625zm9.716949 4.3125q0 0.171875 -0.0625 0.328125q-0.0625 0.140625 -0.1875 0.265625q-0.203125 0.203125 -0.5625 0.328125q-0.359375 0.109375 -0.84375 0.109375q-0.296875 0 -0.609375 -0.0625q-0.3125 -0.0625 -0.578125 -0.21875q-0.25 -0.15625 -0.421875 -0.40625q-0.171875 -0.265625 -0.203125 -0.640625l-1.203125 0q0 0.453125 0.203125 0.875q0.203125 0.40625 0.59375 0.71875q0.390625 0.328125 0.9375 0.515625q0.5625 0.1875 1.28125 0.1875q0.625 0 1.15625 -0.140625q0.53125 -0.15625 0.90625 -0.421875q0.375 -0.28125 0.578125 -0.65625q0.21875 -0.390625 0.21875 -0.859375q0 -0.4375 -0.1875 -0.765625q-0.1875 -0.328125 -0.53125 -0.59375q-0.359375 -0.234375 -0.875 -0.40625q-0.515625 -0.1875 -1.15625 -0.328125q-0.5 -0.09375 -0.828125 -0.203125q-0.3125 -0.109375 -0.5 -0.234375q-0.203125 -0.125 -0.28125 -0.28125q-0.078125 -0.171875 -0.078125 -0.375q0 -0.203125 0.09375 -0.390625q0.109375 -0.203125 0.296875 -0.34375q0.1875 -0.140625 0.46875 -0.21875q0.296875 -0.09375 0.6875 -0.09375q0.375 0 0.671875 0.109375q0.296875 0.109375 0.5 0.265625q0.203125 0.171875 0.3125 0.390625q0.125 0.21875 0.125 0.453125l1.203125 0q0 -0.46875 -0.203125 -0.859375q-0.1875 -0.40625 -0.546875 -0.703125q-0.375 -0.296875 -0.890625 -0.46875q-0.515625 -0.171875 -1.171875 -0.171875q-0.609375 0 -1.109375 0.171875q-0.5 0.15625 -0.875 0.4375q-0.359375 0.28125 -0.5625 0.65625q-0.203125 0.375 -0.203125 0.796875q0 0.4375 0.1875 0.765625q0.203125 0.328125 0.5625 0.5625q0.359375 0.25 0.84375 0.4375q0.5 0.171875 1.109375 0.296875q0.5 0.09375 0.828125 0.21875q0.328125 0.109375 0.53125 0.25q0.203125 0.15625 0.28125 0.328125q0.09375 0.171875 0.09375 0.375zm7.998169 0q0 0.171875 -0.0625 0.328125q-0.0625 0.140625 -0.1875 0.265625q-0.203125 0.203125 -0.5625 0.328125q-0.359375 0.109375 -0.84375 0.109375q-0.296875 0 -0.609375 -0.0625q-0.3125 -0.0625 -0.578125 -0.21875q-0.25 -0.15625 -0.421875 -0.40625q-0.171875 -0.265625 -0.203125 -0.640625l-1.203125 0q0 0.453125 0.203125 0.875q0.203125 0.40625 0.59375 0.71875q0.390625 0.328125 0.9375 0.515625q0.5625 0.1875 1.28125 0.1875q0.625 0 1.15625 -0.140625q0.53125 -0.15625 0.90625 -0.421875q0.375 -0.28125 0.578125 -0.65625q0.21875 -0.390625 0.21875 -0.859375q0 -0.4375 -0.1875 -0.765625q-0.1875 -0.328125 -0.53125 -0.59375q-0.359375 -0.234375 -0.875 -0.40625q-0.515625 -0.1875 -1.15625 -0.328125q-0.5 -0.09375 -0.828125 -0.203125q-0.3125 -0.109375 -0.5 -0.234375q-0.203125 -0.125 -0.28125 -0.28125q-0.078125 -0.171875 -0.078125 -0.375q0 -0.203125 0.09375 -0.390625q0.109375 -0.203125 0.296875 -0.34375q0.1875 -0.140625 0.46875 -0.21875q0.296875 -0.09375 0.6875 -0.09375q0.375 0 0.671875 0.109375q0.296875 0.109375 0.5 0.265625q0.203125 0.171875 0.3125 0.390625q0.125 0.21875 0.125 0.453125l1.203125 0q0 -0.46875 -0.203125 -0.859375q-0.1875 -0.40625 -0.546875 -0.703125q-0.375 -0.296875 -0.890625 -0.46875q-0.515625 -0.171875 -1.171875 -0.171875q-0.609375 0 -1.109375 0.171875q-0.5 0.15625 -0.875 0.4375q-0.359375 0.28125 -0.5625 0.65625q-0.203125 0.375 -0.203125 0.796875q0 0.4375 0.1875 0.765625q0.203125 0.328125 0.5625 0.5625q0.359375 0.25 0.84375 0.4375q0.5 0.171875 1.109375 0.296875q0.5 0.09375 0.828125 0.21875q0.328125 0.109375 0.53125 0.25q0.203125 0.15625 0.28125 0.328125q0.09375 0.171875 0.09375 0.375z" fill-rule="nonzero"/></g></svg>