<?xml version="1.0" standalone="no"?>
<!DOCTYPE svg PUBLIC "-//W3C//DTD SVG 20010904//EN"
 "http://www.w3.org/TR/2001/REC-SVG-20010904/DTD/svg10.dtd">
<svg style="background-color: black;" version="1.0" xmlns="http://www.w3.org/2000/svg"
 width="1080.000000pt" height="1994.000000pt" viewBox="0 0 1080.000000 1994.000000"
 preserveAspectRatio="xMidYMid meet">

<g transform="translate(0.000000,1994.000000) scale(0.100000,-0.100000)"
fill="#ffffff" stroke="none">
<path d="M4123 13642 c-9 -6 -15 -126 -23 -457 -27 -1136 -27 -1117 -43 -1126
-9 -5 -25 -25 -37 -44 -22 -36 -22 -36 -88 -33 l-65 3 -17 64 c-21 75 -62 137
-110 165 -43 25 -100 24 -241 -3 -114 -22 -323 -37 -654 -46 -274 -8 -753 -33
-872 -45 -273 -28 -413 -93 -413 -190 0 -40 45 -85 92 -94 148 -26 686 -46
1431 -53 l667 -6 0 -196 c0 -167 3 -201 18 -231 21 -44 58 -58 98 -39 25 12
39 38 97 174 37 88 74 174 81 190 13 26 15 -52 15 -635 1 -596 7 -810 27 -915
8 -45 38 -75 75 -75 83 0 104 48 123 291 31 385 40 617 41 1025 l0 422 200 6
c110 4 349 11 530 17 652 20 2708 118 3240 154 332 23 668 61 710 81 51 24 78
67 83 133 3 46 0 62 -20 91 -36 53 -83 80 -139 80 -98 0 -544 -31 -859 -61
-1744 -161 -2580 -227 -3474 -276 -315 -17 -320 -17 -330 2 -6 11 -25 34 -43
53 l-32 33 -7 752 c-4 414 -11 762 -15 775 -9 23 -25 28 -46 14z m-434 -1551
c18 -18 41 -78 41 -107 0 -14 -138 -21 -625 -34 -399 -11 -1124 -11 -1225 -1
l-65 6 60 8 c75 9 509 41 835 62 368 23 725 54 815 69 114 20 142 19 164 -3z"/>
<path d="M7945 11753 c-165 -4 -770 -40 -1054 -62 -205 -16 -237 -17 -262 -4
-63 32 -1113 -26 -1673 -92 -241 -29 -280 -37 -301 -68 -21 -30 -19 -83 4
-106 29 -29 93 -34 305 -28 181 6 366 24 838 82 135 16 305 29 490 35 156 6
296 12 313 15 16 3 41 17 55 30 24 23 42 27 251 50 421 46 878 84 1217 101
124 6 156 14 136 34 -12 11 -169 17 -319 13z"/>
<path d="M6970 11449 c-47 -4 -238 -20 -425 -34 -464 -34 -473 -35 -497 -55
-17 -14 -19 -20 -9 -38 9 -17 21 -22 52 -22 43 0 978 106 1017 115 15 4 22 12
20 23 -4 21 -38 23 -158 11z"/>
<path d="M5027 11262 c-36 -40 -9 -102 45 -102 51 0 78 69 40 103 -24 22 -65
21 -85 -1z"/>
</g>
</svg>
