<?xml version="1.0" standalone="no"?>
<!DOCTYPE svg PUBLIC "-//W3C//DTD SVG 20010904//EN"
 "http://www.w3.org/TR/2001/REC-SVG-20010904/DTD/svg10.dtd">
<svg style="background-color: black;" version="1.0" xmlns="http://www.w3.org/2000/svg"
 width="1080.000000pt" height="1994.000000pt" viewBox="20 -70 1080.000000 1994.000000"
 preserveAspectRatio="xMidYMid meet">

<g transform="translate(0.000000,1994.000000) scale(0.100000,-0.100000)"
fill="#ffffff" stroke="none">
<path d="M3773 15914 c-7 -18 -9 -13 107 -299 98 -242 341 -887 492 -1305 114
-315 192 -539 428 -1230 147 -429 461 -1332 579 -1664 39 -109 70 -200 69
-202 -2 -1 -40 57 -85 130 -105 170 -156 234 -201 253 -73 30 -170 -9 -203
-81 -33 -73 -27 -100 52 -226 94 -152 253 -446 513 -953 110 -214 126 -250
114 -264 -7 -9 -17 -27 -23 -40 l-10 -24 -49 41 c-40 33 -56 40 -91 40 -66 0
-125 -59 -125 -125 0 -15 25 -102 57 -193 31 -92 120 -377 198 -634 141 -466
141 -467 118 -473 -38 -9 -63 -41 -63 -81 0 -21 24 -94 60 -178 43 -103 59
-153 57 -183 -1 -42 24 -93 46 -93 7 0 21 -16 30 -35 11 -24 25 -36 44 -40 15
-3 42 -10 59 -15 54 -18 91 -12 126 19 28 25 32 34 31 77 -1 92 -111 468 -317
1081 l-104 311 32 -19 c49 -30 92 -23 142 22 17 16 23 17 36 6 32 -25 311
-711 460 -1132 27 -77 83 -252 124 -390 41 -137 88 -290 104 -340 16 -49 32
-110 35 -134 16 -100 113 -264 184 -312 50 -33 93 -37 149 -13 78 32 122 99
122 184 0 139 -177 763 -341 1203 -67 178 -331 852 -509 1297 -287 716 -864
2201 -1140 2935 -516 1370 -966 2490 -1203 2998 -41 86 -49 97 -72 97 -15 0
-28 -7 -32 -16z"/>
<path d="M4730 11295 c0 -9 8 -32 19 -53 28 -56 94 -256 160 -489 78 -274 242
-875 282 -1036 30 -120 31 -129 14 -140 -26 -20 -16 -61 15 -65 24 -3 28 -14
99 -290 94 -366 138 -521 157 -549 28 -44 114 -16 114 36 0 32 -73 277 -334
1126 -327 1059 -432 1376 -482 1453 -17 25 -44 30 -44 7z"/>
<path d="M5273 8814 c-6 -17 25 -166 54 -257 18 -59 39 -57 36 4 -1 43 -1 42
29 -36 16 -44 81 -226 144 -404 63 -179 121 -335 129 -348 18 -26 33 -29 59
-10 18 13 18 16 -4 83 -59 178 -370 936 -397 967 -20 21 -42 22 -50 1z"/>
<path d="M5951 7911 c-15 -10 -16 -6 109 -491 28 -107 66 -274 86 -370 20 -96
39 -178 42 -182 4 -4 13 -3 21 1 12 8 10 29 -8 137 -26 158 -166 817 -184 870
-14 40 -38 53 -66 35z"/>
<path d="M6217 6562 c-36 -40 -9 -102 45 -102 51 0 78 69 40 103 -24 22 -65
21 -85 -1z"/>
</g>
</svg>
