<?xml version="1.0" standalone="no"?>
<!DOCTYPE svg PUBLIC "-//W3C//DTD SVG 20010904//EN"
 "http://www.w3.org/TR/2001/REC-SVG-20010904/DTD/svg10.dtd">
<svg style="background-color: white;" version="1.0" xmlns="http://www.w3.org/2000/svg"
 width="1080.000000pt" height="2010.000000pt" viewBox="0 0 1080.000000 2010.000000"
 preserveAspectRatio="xMidYMid meet">

<g transform="translate(0.000000,2010.000000) scale(0.100000,-0.100000)"
fill="#000000" stroke="none">
<path d="M3407 12648 c-23 -13 -173 -238 -303 -455 -524 -875 -1112 -2166
-1234 -2713 -32 -140 -25 -191 32 -233 26 -19 29 -19 71 -3 24 9 88 55 143
102 171 148 308 245 411 290 29 13 56 24 58 24 3 0 5 -15 5 -34 0 -50 16 -85
44 -97 21 -10 31 -8 61 10 20 11 41 21 47 21 21 0 494 200 598 253 33 17 37
50 9 78 -18 18 -29 21 -77 17 -42 -4 -60 -10 -73 -27 -32 -40 -394 -186 -420
-170 -8 5 -24 9 -36 9 -12 0 -31 12 -43 30 -29 41 -84 56 -145 41 -107 -27
-264 -115 -434 -243 -35 -26 -65 -47 -67 -45 -9 8 117 394 213 652 211 567
382 954 713 1615 154 309 246 475 386 699 46 73 84 144 84 156 0 27 -19 37
-43 23z"/>
<path d="M9479 11104 c-517 -329 -1424 -810 -2304 -1224 -790 -371 -1098 -503
-2710 -1168 -627 -259 -1219 -504 -1315 -546 -96 -41 -175 -74 -176 -73 -2 1
51 52 118 112 295 270 525 548 620 750 39 85 56 192 38 255 -15 57 -80 124
-135 139 -82 23 -139 23 -260 2 -66 -11 -130 -23 -142 -27 -21 -6 -23 -3 -23
28 0 36 -33 78 -61 78 -14 0 -277 -92 -355 -125 -22 -9 -46 -24 -54 -35 -16
-20 -501 -256 -639 -310 -46 -19 -92 -43 -102 -54 -23 -24 -25 -74 -3 -104 36
-52 37 -52 473 92 567 188 756 241 947 265 45 6 98 7 119 4 35 -6 37 -7 31
-37 -30 -146 -305 -475 -697 -831 -214 -194 -523 -435 -857 -666 -50 -35 -116
-81 -145 -101 -28 -21 -69 -47 -90 -58 -92 -50 -103 -165 -21 -229 56 -44 83
-35 435 142 491 247 1346 640 2484 1142 1625 717 2741 1264 3780 1855 527 300
1185 715 1185 749 0 17 -18 41 -30 41 -4 0 -54 -30 -111 -66z"/>
<path d="M3697 10082 c-36 -40 -9 -102 45 -102 49 0 78 69 42 104 -21 22 -67
20 -87 -2z"/>
</g>
</svg>
