<?xml version="1.0" standalone="no"?>
<!DOCTYPE svg PUBLIC "-//W3C//DTD SVG 20010904//EN"
 "http://www.w3.org/TR/2001/REC-SVG-20010904/DTD/svg10.dtd">
<svg style="background-color: black;" version="1.0" xmlns="http://www.w3.org/2000/svg"
 width="1080.000000pt" height="1995.000000pt" viewBox="0 0 1080.000000 1995.000000"
 preserveAspectRatio="xMidYMid meet">

<g transform="translate(0.000000,1995.000000) scale(0.100000,-0.100000)"
fill="#ffffff" stroke="none">
<path d="M7166 17048 c-9 -12 -16 -29 -16 -38 0 -54 71 -79 111 -39 21 21 20
59 -3 86 -18 22 -75 16 -92 -9z"/>
<path d="M7720 16565 c-11 -13 -8 -22 16 -55 184 -246 264 -373 356 -568 134
-285 196 -476 252 -787 50 -271 59 -376 59 -630 0 -206 -4 -269 -27 -445 -65
-480 -174 -869 -394 -1400 -250 -604 -493 -1037 -923 -1647 -355 -504 -550
-739 -944 -1142 -250 -254 -372 -360 -504 -436 -67 -38 -322 -153 -639 -288
-290 -124 -594 -255 -677 -291 -82 -36 -143 -60 -135 -53 164 133 348 274 472
362 173 123 204 155 195 211 -13 79 -72 122 -142 103 -21 -6 -192 -113 -379
-239 -362 -242 -1452 -1004 -1499 -1049 -62 -57 -76 -140 -34 -202 l24 -34
-82 -86 c-176 -186 -290 -349 -301 -429 -5 -37 -1 -54 23 -99 36 -69 63 -89
141 -103 89 -17 218 0 503 62 126 28 235 50 240 48 5 -2 -22 -46 -61 -98 -84
-111 -100 -140 -100 -175 0 -29 21 -75 44 -94 8 -7 18 -25 21 -41 10 -47 51
-80 100 -80 80 0 125 65 106 151 -16 67 -15 72 40 140 69 86 88 126 100 212 6
39 13 86 16 103 10 61 -48 137 -115 150 -15 3 -137 -15 -272 -41 -298 -57
-420 -77 -434 -72 -6 2 133 145 307 318 295 293 323 317 385 344 37 15 393
184 792 375 399 191 781 373 848 404 l124 56 36 -31 c32 -29 40 -31 91 -27 95
7 245 92 491 278 63 47 130 92 148 100 55 22 110 67 123 102 7 18 42 60 78 93
89 80 315 317 424 444 273 319 586 758 871 1225 585 958 962 1978 1040 2816
35 375 32 557 -16 885 -34 239 -115 561 -193 766 -108 284 -296 605 -489 837
-61 73 -83 85 -106 57z"/>
<path d="M7675 9633 c-31 -7 -1233 -416 -1469 -499 -115 -41 -225 -74 -245
-74 -109 -1 -270 -57 -328 -115 -37 -36 -43 -48 -43 -83 0 -62 33 -95 93 -95
25 1 56 4 69 7 13 3 -166 -88 -397 -202 -570 -283 -1192 -609 -1215 -637 -17
-21 5 -58 30 -50 10 3 191 91 402 194 736 363 1990 920 2681 1191 335 132 497
198 525 216 47 30 49 106 5 140 -18 13 -68 16 -108 7z"/>
<path d="M4075 6902 c-33 -7 -45 -23 -45 -57 0 -56 51 -82 98 -49 49 34 7 119
-53 106z"/>
</g>
</svg>
