<?xml version="1.0" standalone="no"?>
<!DOCTYPE svg PUBLIC "-//W3C//DTD SVG 20010904//EN"
 "http://www.w3.org/TR/2001/REC-SVG-20010904/DTD/svg10.dtd">
<svg style="background-color: white;" version="1.0" xmlns="http://www.w3.org/2000/svg"
 width="1080.000000pt" height="1994.000000pt" viewBox="0 0 1080.000000 1994.000000"
 preserveAspectRatio="xMidYMid meet">

<g transform="translate(0.000000,1994.000000) scale(0.100000,-0.100000)"
fill="#000000" stroke="none">
<path d="M9570 13093 c-1121 -84 -2421 -455 -3795 -1083 -515 -236 -1011 -513
-1043 -585 -19 -41 -14 -81 14 -114 23 -28 31 -31 84 -31 53 0 73 7 197 69
l138 68 125 6 125 5 -90 -44 c-49 -24 -270 -131 -489 -239 -220 -107 -403
-192 -407 -188 -3 5 -57 161 -119 348 -89 268 -412 1204 -445 1288 -8 20 -38
22 -54 3 -9 -11 10 -80 84 -311 52 -163 168 -538 256 -833 89 -296 164 -542
166 -548 2 -7 -150 -90 -364 -199 -1057 -538 -1952 -1028 -2366 -1294 -51 -32
-117 -66 -147 -75 -31 -8 -76 -29 -102 -46 -57 -38 -180 -151 -209 -192 -61
-85 13 -213 113 -194 20 3 119 58 221 121 102 63 191 115 197 115 6 0 30 15
53 34 44 35 596 377 907 563 389 232 1670 955 1731 978 13 5 20 -5 33 -41 21
-61 20 -71 -4 -79 -30 -10 -52 -50 -52 -93 1 -40 96 -328 242 -732 50 -140
131 -367 180 -505 196 -555 295 -812 415 -1076 36 -78 73 -151 82 -162 57 -63
161 -44 178 32 12 55 -122 451 -485 1436 -178 483 -284 780 -389 1090 l-69
203 441 235 c243 130 521 274 617 320 l175 84 195 11 c364 22 638 72 703 130
23 20 22 64 -2 93 -18 23 -27 24 -151 27 -100 3 -133 7 -137 17 -8 23 -69 37
-125 30 -59 -8 -207 -57 -328 -109 l-84 -36 -196 0 -195 0 55 31 c146 82 778
395 955 473 723 320 1518 601 2080 735 423 101 815 167 1138 192 87 7 165 18
174 24 10 8 13 19 9 33 -7 21 -13 22 -99 20 -51 -1 -112 -3 -137 -5z"/>
<path d="M8206 10469 c-22 -17 -26 -27 -21 -48 9 -36 28 -53 59 -53 41 0 69
30 62 67 -11 55 -54 70 -100 34z"/>
<path d="M3090 9721 c-815 -420 -850 -440 -850 -481 0 -33 36 -61 68 -54 15 4
123 55 239 114 l213 107 15 -23 c25 -39 68 -31 196 34 63 32 202 114 309 183
107 69 230 147 273 173 93 57 112 81 97 121 -6 15 -9 29 -8 30 2 1 24 14 51
29 26 15 47 31 47 36 0 23 -14 40 -34 39 -11 -1 -289 -139 -616 -308z"/>
<path d="M4346 8819 c-22 -17 -26 -27 -21 -48 9 -36 28 -53 59 -53 41 0 69 30
62 67 -11 55 -54 70 -100 34z"/>
</g>
</svg>
