<?xml version="1.0" standalone="no"?>
<!DOCTYPE svg PUBLIC "-//W3C//DTD SVG 20010904//EN"
 "http://www.w3.org/TR/2001/REC-SVG-20010904/DTD/svg10.dtd">
<svg style="background-color: black;" version="1.0" xmlns="http://www.w3.org/2000/svg"
 width="1080.000000pt" height="1994.000000pt" viewBox="0 0 1080.000000 1994.000000"
 preserveAspectRatio="xMidYMid meet">

<g transform="translate(0.000000,1994.000000) scale(0.100000,-0.100000)"
fill="#ffffff" stroke="none">
<path d="M9015 14139 c-1082 -90 -2397 -473 -3735 -1086 -495 -227 -959 -488
-1023 -575 -25 -33 -17 -89 18 -124 20 -19 34 -24 78 -24 48 0 73 9 198 72
l144 71 120 4 120 3 -100 -50 c-292 -145 -879 -430 -881 -427 -2 2 -73 212
-159 468 -85 255 -212 626 -282 824 -122 343 -129 360 -153 360 -16 0 -26 -6
-28 -18 -2 -10 38 -147 88 -305 89 -277 420 -1368 420 -1383 0 -4 -161 -90
-358 -190 -1068 -544 -2043 -1078 -2372 -1299 -47 -32 -101 -61 -120 -65 -69
-14 -139 -57 -229 -137 -50 -45 -100 -96 -111 -113 -40 -64 -14 -149 55 -182
50 -24 82 -11 286 116 97 60 187 112 200 116 13 4 35 18 49 30 29 27 623 397
910 567 474 281 1712 978 1736 978 6 0 18 -25 26 -55 l15 -55 -27 -17 c-31
-18 -50 -51 -50 -86 0 -45 195 -610 552 -1597 161 -447 326 -831 380 -887 25
-26 40 -33 71 -33 48 0 97 43 97 87 0 66 -151 509 -460 1348 -310 842 -487
1352 -474 1365 19 18 827 447 1019 540 l200 98 191 11 c402 24 700 83 721 145
11 33 4 59 -23 84 -23 20 -35 22 -145 22 -113 0 -122 1 -139 23 -16 19 -27 22
-92 21 -78 -1 -146 -22 -344 -103 l-100 -41 -195 0 -194 0 65 36 c192 105 804
406 995 489 753 329 1487 586 2053 720 405 96 790 161 1097 185 209 17 207 16
203 48 l-3 27 -105 1 c-58 1 -150 -2 -205 -7z"/>
<path d="M7727 11522 c-37 -41 -11 -102 43 -102 36 0 60 23 60 59 0 54 -68 82
-103 43z"/>
<path d="M2584 10756 c-734 -377 -808 -419 -812 -459 -4 -37 13 -57 49 -57 17
0 121 46 247 109 211 106 218 108 228 88 6 -15 20 -23 43 -25 46 -5 215 80
406 204 83 53 202 128 265 166 162 98 191 130 160 178 -7 11 2 20 38 40 37 20
47 31 47 50 0 17 -6 26 -20 28 -11 1 -304 -144 -651 -322z"/>
<path d="M3867 9872 c-37 -41 -11 -102 43 -102 36 0 60 23 60 59 0 54 -68 82
-103 43z"/>
</g>
</svg>
