<?xml version="1.0" standalone="no"?>
<!DOCTYPE svg PUBLIC "-//W3C//DTD SVG 20010904//EN"
 "http://www.w3.org/TR/2001/REC-SVG-20010904/DTD/svg10.dtd">
<svg style="background-color: black;" version="1.0" xmlns="http://www.w3.org/2000/svg"
 width="1080.000000pt" height="1994.000000pt" viewBox="20 -120 1080.000000 1994.000000"
 preserveAspectRatio="xMidYMid meet">

<g transform="translate(0.000000,1994.000000) scale(0.100000,-0.100000)"
fill="#ffffff" stroke="none">
<path d="M6710 12134 c-413 -107 -884 -251 -1175 -359 -77 -28 -270 -91 -430
-140 -159 -49 -296 -94 -304 -101 -16 -15 -7 -34 17 -34 9 0 148 36 307 79
227 63 292 77 300 67 22 -28 49 -25 183 18 75 25 182 56 237 70 129 32 367 77
373 71 3 -3 -3 -5 -12 -5 -10 0 -33 -15 -52 -34 -54 -54 -42 -114 29 -154 29
-16 73 -17 517 -16 267 1 661 8 875 17 215 9 552 20 750 23 l360 7 -47 -42
c-77 -68 -145 -189 -149 -266 -5 -78 23 -122 85 -132 73 -12 132 42 119 109
-11 56 57 130 216 232 147 95 172 137 130 215 -18 34 -37 52 -74 71 l-50 25
-325 -1 c-280 -1 -428 -8 -1075 -52 -700 -48 -917 -61 -911 -55 1 2 100 30
220 63 228 64 346 103 382 127 35 22 49 67 34 103 -7 17 -22 36 -34 42 -24 13
-117 15 -222 4 l-71 -7 0 32 c0 33 -23 59 -52 59 -9 -1 -77 -17 -151 -36z"/>
<path d="M4412 11449 c-31 -12 -37 -34 -18 -64 20 -30 36 -31 66 -7 40 33 2
90 -48 71z"/>
<path d="M6705 11360 c-475 -23 -989 -77 -1106 -116 -62 -20 -84 -46 -83 -95
2 -43 24 -76 62 -90 12 -5 127 -29 255 -55 127 -25 234 -48 236 -50 11 -10
-810 18 -1204 42 -568 33 -851 57 -1475 125 -385 41 -1072 131 -1410 184 -45
7 -69 -7 -54 -32 13 -21 55 -30 494 -108 566 -99 1060 -171 1605 -234 977
-113 1985 -186 2213 -160 125 14 215 42 241 76 26 32 28 108 5 141 -32 47
-174 99 -374 138 l-95 18 65 7 c36 4 230 12 431 19 390 13 771 4 1069 -26 80
-7 154 -14 165 -15 l20 0 -20 -9 c-11 -5 -79 -27 -152 -49 -139 -43 -173 -66
-173 -117 0 -75 64 -114 186 -114 151 0 585 50 909 105 115 19 143 27 157 45
24 29 23 61 -3 94 -26 33 -29 33 -336 -2 l-242 -28 16 30 c22 42 13 119 -17
151 -46 49 -212 93 -430 115 -148 15 -736 21 -955 10z"/>
</g>
</svg>
