<?xml version="1.0" standalone="no"?>
<!DOCTYPE svg PUBLIC "-//W3C//DTD SVG 20010904//EN"
 "http://www.w3.org/TR/2001/REC-SVG-20010904/DTD/svg10.dtd">
<svg style="background-color: black;" version="1.0" xmlns="http://www.w3.org/2000/svg"
 width="1079.000000pt" height="2113.000000pt" viewBox="0 0 1079.000000 2113.000000"
 preserveAspectRatio="xMidYMid meet">

<g transform="translate(0.000000,2113.000000) scale(0.100000,-0.100000)"
fill="#ffffff" stroke="none">
<path d="M5486 17042 c-10 -17 -56 -310 -76 -487 -65 -583 -147 -2069 -166
-3040 -7 -371 -1 -436 44 -475 l29 -25 7 -190 c9 -252 42 -946 62 -1320 20
-363 22 -621 5 -855 -19 -265 7 -575 100 -1205 122 -823 302 -1636 385 -1735
43 -51 127 -36 175 31 19 27 21 39 15 101 -7 80 -26 132 -54 147 -12 6 -23 29
-30 63 -6 29 -56 253 -112 498 -186 818 -320 1598 -320 1860 0 41 9 165 21
275 26 250 28 560 5 810 -23 259 -93 1159 -111 1435 -20 296 -20 334 5 790 11
206 23 474 26 596 6 199 5 223 -10 247 -10 14 -27 29 -38 33 -21 6 -21 8 -14
413 15 895 48 1533 96 1879 10 73 16 140 13 148 -6 15 -48 20 -57 6z"/>
<path d="M4940 13477 c-18 -9 -27 -24 -32 -59 -5 -25 -7 -331 -6 -680 l3 -633
21 -3 c11 -2 25 3 31 10 6 8 19 241 32 558 30 768 30 773 7 799 -22 24 -23 25
-56 8z"/>
<path d="M4893 11850 c-27 -11 -39 -53 -25 -85 24 -53 104 -36 110 24 6 56
-31 82 -85 61z"/>
<path d="M4887 10843 c-3 -5 -15 -93 -27 -198 -88 -776 -265 -1680 -447 -2280
-52 -171 -140 -421 -168 -475 -12 -23 -13 -22 -19 30 -4 30 -16 163 -26 295
-56 664 -155 1243 -231 1339 -34 43 -117 30 -138 -23 -17 -42 -31 -128 -38
-237 -5 -94 -4 -103 16 -123 11 -11 29 -21 39 -21 27 0 62 29 62 51 0 31 17
22 24 -13 68 -336 123 -678 150 -928 9 -80 19 -164 22 -187 4 -34 2 -43 -10
-43 -63 0 -33 -239 40 -317 58 -61 140 -35 200 64 133 223 317 963 443 1783
71 461 155 1250 136 1279 -7 13 -22 14 -28 4z"/>
</g>
</svg>
