<?xml version="1.0" standalone="no"?>
<!DOCTYPE svg PUBLIC "-//W3C//DTD SVG 20010904//EN"
 "http://www.w3.org/TR/2001/REC-SVG-20010904/DTD/svg10.dtd">
<svg style="background-color: black;" version="1.0" xmlns="http://www.w3.org/2000/svg"
 width="1080.000000pt" height="1994.000000pt" viewBox="0 -160 1080.000000 1994.000000"
 preserveAspectRatio="xMidYMid meet">

<g transform="translate(0.000000,1994.000000) scale(0.100000,-0.100000)"
fill="#ffffff" stroke="none">
<path d="M5354 13741 c-12 -5 -31 -22 -44 -38 -44 -56 1 -145 73 -145 43 0 85
26 93 58 9 35 -4 89 -24 108 -23 20 -70 28 -98 17z"/>
<path d="M7580 12220 c-74 -10 -387 -61 -695 -113 -308 -53 -794 -132 -1080
-177 -286 -45 -526 -87 -533 -93 -7 -6 -12 -22 -10 -36 2 -21 9 -27 35 -29 41
-4 1039 123 1572 200 342 49 426 58 429 48 3 -8 16 -25 29 -38 19 -19 32 -23
66 -21 34 3 52 -3 97 -33 30 -19 102 -62 160 -93 156 -87 210 -123 266 -181
66 -67 79 -101 55 -146 -43 -80 -250 -202 -530 -313 -333 -131 -663 -221
-1256 -341 -587 -119 -1092 -189 -1720 -239 -304 -24 -268 -27 -277 24 -27
157 -184 241 -482 257 -333 18 -881 -88 -1051 -204 -59 -41 -105 -114 -105
-168 0 -59 49 -115 125 -143 177 -66 605 -86 1125 -51 86 6 138 6 144 0 15
-15 67 -12 99 5 18 9 124 24 280 40 1326 135 2650 448 3341 791 294 145 426
262 426 376 0 128 -118 249 -402 408 -73 41 -89 60 -49 60 22 0 147 42 190 64
41 22 72 72 65 106 -15 65 -71 73 -314 40z m-3709 -1554 c66 -15 123 -45 127
-67 2 -13 -18 -17 -134 -22 -292 -14 -875 -4 -826 14 37 14 263 60 362 73 128
18 399 19 471 2z"/>
</g>
</svg>
