<?xml version="1.0" standalone="no"?>
<!DOCTYPE svg PUBLIC "-//W3C//DTD SVG 20010904//EN"
 "http://www.w3.org/TR/2001/REC-SVG-20010904/DTD/svg10.dtd">
<svg style="background-color: white;" version="1.0" xmlns="http://www.w3.org/2000/svg"
 width="1080.000000pt" height="1994.000000pt" viewBox="0 20 1080.000000 1994.000000"
 preserveAspectRatio="xMidYMid meet">

<g transform="translate(0.000000,1994.000000) scale(0.100000,-0.100000)"
fill="#000000" stroke="none">
<path d="M7310 12101 c-63 -20 -378 -186 -545 -289 -98 -60 -632 -325 -810
-402 -60 -26 -157 -62 -215 -79 -57 -18 -130 -46 -161 -61 -57 -29 -109 -80
-109 -106 0 -28 28 -82 48 -93 26 -14 77 -14 103 -1 43 24 13 -2 -83 -71 -323
-230 -849 -634 -1246 -956 -870 -706 -1757 -1529 -2155 -2000 -22 -25 -15 -63
11 -63 10 0 137 118 282 263 502 498 1338 1208 2045 1738 298 224 786 575
1035 746 271 187 717 473 735 473 22 0 36 -35 42 -111 9 -109 16 -114 160
-114 112 0 125 2 250 43 240 77 631 257 743 341 60 45 171 92 289 122 95 24
136 24 168 -1 33 -26 92 -26 170 0 135 44 470 210 480 237 3 7 2 24 -1 38 -12
49 -40 42 -266 -69 -118 -58 -237 -110 -263 -117 -45 -11 -50 -10 -72 11 -36
34 -110 37 -237 10 -129 -27 -264 -79 -348 -135 -114 -75 -443 -215 -675 -288
-81 -25 -224 -52 -233 -43 -2 3 -8 27 -13 53 -5 26 -18 65 -28 85 l-18 38 206
123 c113 68 316 183 451 257 135 73 276 150 313 172 70 41 107 84 107 126 0
40 -28 91 -62 112 -35 21 -57 23 -98 11z"/>
<path d="M7129 10911 c-134 -54 -299 -120 -366 -146 -93 -36 -123 -52 -123
-65 0 -48 18 -45 322 64 485 173 466 164 453 206 -15 47 -31 43 -286 -59z"/>
<path d="M5337 10352 c-36 -40 -9 -102 45 -102 51 0 78 69 40 103 -24 22 -65
21 -85 -1z"/>
</g>
</svg>
