<?xml version="1.0" standalone="no"?>
<!DOCTYPE svg PUBLIC "-//W3C//DTD SVG 20010904//EN"
 "http://www.w3.org/TR/2001/REC-SVG-20010904/DTD/svg10.dtd">
<svg style="background-color: black;" version="1.0" xmlns="http://www.w3.org/2000/svg"
 width="1079.000000pt" height="2045.000000pt" viewBox="0 0 1079.000000 2045.000000"
 preserveAspectRatio="xMidYMid meet">

<g transform="translate(0.000000,2045.000000) scale(0.100000,-0.100000)"
fill="#ffffff" stroke="none">
<path d="M4262 17171 c-9 -5 -18 -56 -27 -146 -15 -145 -11 -175 24 -175 37 0
43 24 44 177 2 124 0 148 -13 150 -8 2 -21 -1 -28 -6z"/>
<path d="M4347 15778 c-55 -42 -170 -1620 -195 -2683 l-7 -290 -28 -40 c-33
-47 -67 -152 -67 -204 0 -50 25 -130 53 -172 37 -56 113 -64 157 -17 l20 22 0
-280 c1 -461 18 -1504 30 -1744 12 -251 25 -421 43 -525 12 -68 13 -70 42 -70
35 0 33 -22 16 215 -6 85 -13 331 -17 545 -9 534 8 1199 66 2550 30 703 29
687 17 724 -17 49 -56 75 -99 67 -19 -3 -44 -15 -55 -26 l-21 -19 4 97 c2 53
9 257 14 452 13 431 34 837 60 1144 21 257 17 291 -33 254z"/>
<path d="M4657 12088 c-14 -11 -18 -54 -28 -287 -12 -271 -12 -275 -36 -295
-16 -14 -26 -36 -30 -62 -4 -31 -11 -45 -29 -53 -24 -10 -24 -13 -24 -154 0
-79 -3 -305 -7 -503 -6 -333 -5 -361 11 -377 23 -22 41 -22 66 3 l20 20 0
-412 c1 -467 13 -835 30 -891 24 -80 87 -102 141 -48 l29 29 0 -28 c0 -39 38
-650 45 -725 4 -33 11 -72 16 -86 11 -27 46 -49 79 -49 16 0 20 -7 20 -30 0
-42 24 -96 49 -109 25 -14 64 -5 84 17 38 43 42 79 97 937 57 889 100 1409
175 2095 23 203 19 192 69 219 30 15 48 33 55 54 23 63 4 369 -27 444 -28 69
-116 103 -182 70 -75 -38 -105 -184 -150 -722 -41 -500 -86 -1343 -106 -2012
-4 -123 -8 -223 -10 -223 -2 0 -14 5 -27 11 -22 10 -24 20 -46 222 -34 317
-67 534 -86 563 -20 31 -52 44 -86 34 l-26 -8 -7 157 c-18 419 -27 906 -30
1517 -2 370 -7 677 -10 683 -9 14 -18 14 -39 -1z"/>
<path d="M5176 7784 c-18 -18 -21 -56 -6 -85 14 -25 71 -26 93 -1 51 56 -34
140 -87 86z"/>
</g>
</svg>
