<?xml version="1.0" standalone="no"?>
<!DOCTYPE svg PUBLIC "-//W3C//DTD SVG 20010904//EN"
 "http://www.w3.org/TR/2001/REC-SVG-20010904/DTD/svg10.dtd">
<svg style="background-color: black;" version="1.0" xmlns="http://www.w3.org/2000/svg"
 width="1080.000000pt" height="1994.000000pt" viewBox="0 0 1080.000000 1994.000000"
 preserveAspectRatio="xMidYMid meet">

<g transform="translate(0.000000,1994.000000) scale(0.100000,-0.100000)"
fill="#ffffff" stroke="none">
<path d="M4175 13778 c-78 -45 -49 -158 40 -158 69 0 104 64 70 129 -21 42
-67 54 -110 29z"/>
<path d="M3238 13236 c-127 -67 -321 -227 -434 -356 -198 -228 -293 -421 -330
-670 -30 -206 -1 -365 104 -575 90 -181 187 -301 359 -444 526 -440 1376 -736
2443 -852 267 -29 814 -37 1085 -15 408 32 701 84 955 167 387 127 636 272
812 471 116 132 157 199 198 322 31 93 25 219 -15 323 -32 82 -126 204 -217
277 -306 248 -958 413 -1879 476 -132 9 -153 13 -207 40 -233 115 -669 103
-1462 -41 -209 -38 -223 -43 -260 -87 -57 -69 -32 -174 52 -215 34 -17 51 -17
220 -7 145 8 1264 40 1407 40 l34 0 -6 -67 c-6 -65 -31 -154 -62 -218 -37 -78
-69 -175 -73 -225 -5 -67 19 -106 74 -116 71 -13 129 39 158 142 8 27 35 100
61 163 34 80 52 142 63 212 13 89 17 99 36 99 41 0 314 -20 481 -36 648 -59
1053 -190 1249 -405 73 -80 95 -127 96 -200 0 -156 -194 -372 -456 -507 -467
-239 -1026 -354 -1787 -369 -633 -12 -1216 59 -1778 217 -496 140 -870 318
-1157 552 -247 202 -386 446 -399 703 -12 242 66 472 239 707 83 114 263 289
383 374 103 73 120 97 90 128 -21 21 -24 20 -77 -8z"/>
<path d="M4547 10285 c-20 -20 -21 -35 -4 -58 9 -13 47 -23 137 -37 69 -11
249 -42 400 -70 225 -41 280 -48 302 -39 15 6 29 18 31 27 5 25 -12 70 -30 76
-19 8 -659 102 -754 111 -54 6 -69 4 -82 -10z"/>
</g>
</svg>
