<?xml version="1.0" standalone="no"?>
<!DOCTYPE svg PUBLIC "-//W3C//DTD SVG 20010904//EN"
 "http://www.w3.org/TR/2001/REC-SVG-20010904/DTD/svg10.dtd">
<svg style="background-color: white;" version="1.0" xmlns="http://www.w3.org/2000/svg"
 width="1080.000000pt" height="1994.000000pt" viewBox="0 0 1080.000000 1994.000000"
 preserveAspectRatio="xMidYMid meet">

<g transform="translate(0.000000,1994.000000) scale(0.100000,-0.100000)"
fill="#000000" stroke="none">
<path d="M7170 13388 c-178 -17 -476 -124 -696 -249 -487 -276 -1064 -788
-1659 -1469 -680 -779 -1078 -1375 -1559 -2330 -238 -473 -372 -782 -359 -831
8 -29 35 -40 64 -26 17 9 31 32 47 77 38 108 168 365 382 755 404 737 652
1113 1075 1630 215 262 301 361 525 600 580 620 1131 1080 1651 1379 311 179
626 266 727 200 39 -26 25 -98 -51 -257 -127 -268 -343 -551 -1126 -1477 -613
-726 -793 -954 -1021 -1295 -137 -205 -153 -237 -154 -302 -1 -62 22 -99 78
-127 46 -22 28 -25 591 79 383 71 580 105 607 105 7 0 -6 -18 -29 -40 -49 -49
-60 -84 -39 -134 18 -43 78 -75 139 -76 75 0 296 124 453 255 410 342 711 867
805 1400 31 176 34 515 6 643 -55 249 -160 429 -283 483 l-42 19 83 133 c248
396 291 570 182 733 -64 96 -211 141 -397 122z m99 -1183 c58 -30 115 -144
148 -297 25 -114 24 -425 -1 -588 -72 -472 -332 -965 -671 -1270 l-59 -54 -9
35 c-11 44 -32 67 -73 78 -45 12 -272 -14 -776 -89 -219 -33 -400 -60 -403
-60 -9 0 -7 2 745 960 383 487 745 950 805 1030 61 80 124 159 142 176 18 17
33 38 33 45 0 17 47 48 73 49 10 0 31 -7 46 -15z"/>
<path d="M6703 11198 c-16 -18 -117 -141 -224 -273 -107 -132 -256 -313 -331
-402 -76 -90 -138 -172 -138 -182 0 -36 12 -51 40 -51 23 0 73 52 353 368 411
463 430 487 422 521 -10 39 -24 51 -59 51 -23 0 -41 -9 -63 -32z"/>
<path d="M3283 12440 c-28 -17 -33 -25 -33 -59 0 -54 7 -69 42 -87 89 -46 170
65 99 137 -34 34 -64 37 -108 9z"/>
<path d="M2644 7651 c-39 -24 -49 -60 -30 -106 26 -61 92 -70 143 -19 21 21
24 32 20 62 -7 42 -46 82 -80 82 -12 0 -36 -9 -53 -19z"/>
</g>
</svg>
