<?xml version="1.0" standalone="no"?>
<!DOCTYPE svg PUBLIC "-//W3C//DTD SVG 20010904//EN"
 "http://www.w3.org/TR/2001/REC-SVG-20010904/DTD/svg10.dtd">
<svg style="background-color: black;" version="1.0" xmlns="http://www.w3.org/2000/svg"
 width="1080.000000pt" height="2057.000000pt" viewBox="0 0 1080.000000 2057.000000"
 preserveAspectRatio="xMidYMid meet">

<g transform="translate(0.000000,2057.000000) scale(0.100000,-0.100000)"
fill="#ffffff" stroke="none">
<path d="M4855 15076 c-37 -17 -70 -52 -85 -90 -16 -44 -48 -433 -60 -731 -12
-333 -12 -1519 0 -1945 16 -522 23 -1340 15 -1582 l-7 -228 -48 40 c-52 43
-74 48 -108 24 -43 -30 -30 -61 64 -153 l86 -85 -16 -291 c-51 -879 -171
-1756 -326 -2385 -103 -418 -210 -763 -304 -982 -58 -136 -59 -170 -5 -153 54
17 273 590 403 1050 192 684 341 1525 425 2399 11 115 22 210 23 211 2 2 45
-22 95 -53 l93 -57 0 -48 c0 -49 -44 -481 -59 -577 -5 -33 -5 -62 0 -72 10
-19 44 -24 54 -8 8 13 50 276 76 480 11 91 22 166 23 168 2 1 51 -21 110 -48
l107 -51 -7 -207 c-12 -396 -19 -943 -12 -963 8 -20 25 -24 47 -10 10 7 20
134 44 567 16 308 31 560 33 562 1 2 67 -21 146 -51 237 -91 503 -173 833
-258 134 -34 165 -34 165 -1 0 29 -14 36 -155 77 -477 138 -982 328 -979 369
1 9 7 117 14 240 12 207 12 227 -4 250 -33 51 -105 19 -107 -46 -2 -113 -18
-390 -22 -395 -5 -5 -166 77 -192 98 -7 5 -4 97 11 292 30 386 48 721 41 764
-11 67 -53 90 -98 55 -22 -19 -22 -24 -30 -308 -18 -660 -21 -734 -31 -734 -6
0 -46 26 -91 58 -44 31 -84 59 -89 62 -4 3 -1 96 7 205 30 423 42 849 55 1835
10 710 17 942 45 1470 23 421 46 903 48 1025 2 95 -1 115 -19 145 -42 72 -131
100 -209 66z"/>
<path d="M5200 12677 c-57 -28 -23 -127 38 -112 39 10 52 24 52 56 0 30 -30
69 -52 69 -7 0 -24 -6 -38 -13z"/>
<path d="M5192 11944 c-32 -22 -30 -78 3 -100 61 -40 128 43 75 96 -24 24 -48
25 -78 4z"/>
<path d="M5357 7962 c-21 -23 -22 -51 -1 -80 34 -48 123 -11 109 46 -4 15 -11
33 -17 39 -16 19 -72 16 -91 -5z"/>
</g>
</svg>
