<?xml version="1.0" standalone="no"?>
<!DOCTYPE svg PUBLIC "-//W3C//DTD SVG 20010904//EN"
 "http://www.w3.org/TR/2001/REC-SVG-20010904/DTD/svg10.dtd">
<svg style="background-color: white;" version="1.0" xmlns="http://www.w3.org/2000/svg"
 width="1080.000000pt" height="1994.000000pt" viewBox="0 0 1080.000000 1994.000000"
 preserveAspectRatio="xMidYMid meet">

<g transform="translate(0.000000,1994.000000) scale(0.100000,-0.100000)"
fill="#000000" stroke="none">
<path d="M6072 14304 c-242 -72 -375 -140 -800 -411 -479 -305 -480 -306 -468
-429 3 -38 9 -108 13 -155 l6 -86 -110 -134 c-451 -551 -797 -1144 -972 -1666
-78 -234 -134 -474 -167 -718 -22 -160 -25 -564 -6 -730 46 -398 172 -880 336
-1286 81 -203 108 -253 134 -257 13 -2 25 3 28 13 4 9 -19 82 -54 168 -132
334 -237 737 -294 1122 -20 141 -23 196 -23 470 1 276 3 325 24 445 66 393
204 805 376 1129 185 347 338 583 576 889 90 115 232 283 235 279 10 -12 139
-340 204 -517 70 -193 158 -419 214 -551 15 -36 15 -36 -9 -36 -47 0 -55 -17
-55 -122 0 -53 -5 -198 -11 -324 -13 -248 -10 -277 34 -277 41 0 54 27 61 130
3 52 11 141 18 198 l11 103 33 14 c38 16 43 38 20 84 -14 26 -13 31 11 66 34
51 29 91 -37 270 -29 77 -98 277 -155 445 -56 168 -130 380 -165 472 l-63 166
96 104 c175 189 612 593 822 759 97 77 221 162 275 189 60 29 80 56 80 107 0
49 -37 97 -80 106 -14 3 -76 -10 -138 -29z m-961 -779 l-136 -134 -3 51 c-2
34 1 54 10 60 69 44 254 157 259 157 4 1 -55 -60 -130 -134z"/>
<path d="M5463 12693 c-7 -2 -13 -14 -13 -26 0 -11 70 -151 156 -310 86 -160
201 -380 254 -491 139 -286 210 -454 445 -1058 32 -81 66 -154 75 -163 24 -22
68 -10 83 22 9 20 3 47 -38 166 -115 338 -352 854 -576 1255 -126 223 -331
576 -347 595 -16 18 -19 19 -39 10z"/>
<path d="M6887 12282 c-21 -23 -22 -66 -1 -86 36 -37 104 -7 104 46 0 51 -69
78 -103 40z"/>
<path d="M6993 11468 c-6 -8 -13 -112 -17 -248 -17 -661 -156 -1314 -455
-2138 -44 -123 -50 -162 -25 -186 21 -22 70 -20 93 3 45 45 163 391 245 721
168 668 233 1187 216 1705 -5 143 -6 150 -26 153 -11 2 -25 -3 -31 -10z"/>
<path d="M4184 8055 c-34 -52 22 -114 80 -87 58 26 36 112 -29 112 -26 0 -39
-6 -51 -25z"/>
</g>
</svg>
