<?xml version="1.0" standalone="no"?>
<!DOCTYPE svg PUBLIC "-//W3C//DTD SVG 20010904//EN"
 "http://www.w3.org/TR/2001/REC-SVG-20010904/DTD/svg10.dtd">
<svg style="background-color: black;" version="1.0" xmlns="http://www.w3.org/2000/svg"
 width="1080.000000pt" height="1994.000000pt" viewBox="10 160 1080.000000 1994.000000"
 preserveAspectRatio="xMidYMid meet">

<g transform="translate(0.000000,2300.000000) scale(0.100000,-0.100000)"
fill="#ffffff" stroke="none">
<path d="M5553 18054 c-42 -21 -79 -77 -164 -249 -95 -191 -149 -382 -149
-526 0 -34 -27 -130 -89 -321 -387 -1182 -624 -2229 -656 -2898 -7 -140 2
-173 46 -178 45 -5 55 17 63 130 37 561 306 1636 659 2630 l80 226 35 7 c19 3
45 17 58 30 l23 23 5 -31 c3 -18 14 -234 26 -482 35 -753 79 -1093 165 -1258
66 -126 71 -226 90 -2042 15 -1338 14 -2924 -1 -3027 -4 -25 -11 -38 -21 -38
-30 0 -74 -36 -94 -77 -18 -37 -19 -49 -10 -100 26 -137 91 -198 204 -191 49
4 62 9 93 39 76 74 108 188 125 454 15 234 -6 1194 -46 2070 -8 182 -29 674
-45 1095 -42 1061 -70 1533 -104 1730 -8 42 -27 103 -44 135 -34 70 -84 283
-112 484 -32 229 -48 388 -85 856 -20 248 -41 462 -47 478 -8 22 -17 27 -43
27 -34 0 -50 -12 -57 -45 -2 -11 -8 13 -12 52 -8 72 -7 74 53 241 64 178 194
575 206 629 8 39 -8 94 -34 117 -27 25 -81 29 -118 10z"/>
<path d="M5273 11465 c-33 -14 -35 -19 -48 -125 -3 -25 -5 -54 -5 -65 1 -147
-1 -256 -6 -332 l-6 -91 -33 -6 c-72 -14 -95 -96 -52 -188 13 -29 35 -64 48
-78 l24 -25 6 -340 c7 -379 -8 -256 133 -1115 241 -1473 293 -2723 165 -3953
-11 -109 -18 -205 -15 -213 7 -17 40 -18 54 -1 22 27 97 683 129 1127 24 343
24 1262 0 1640 -45 696 -149 1606 -233 2040 -32 166 -37 210 -44 435 -5 138
-14 307 -20 378 -8 92 -8 220 1 459 6 182 8 352 4 376 -4 27 -16 54 -30 68
-28 28 -29 28 -72 9z"/>
<path d="M5553 10923 c-9 -3 -13 -36 -13 -113 0 -118 10 -142 49 -120 19 10
21 20 21 106 0 119 -12 146 -57 127z"/>
</g>
</svg>
