<?xml version="1.0" standalone="no"?>
<!DOCTYPE svg PUBLIC "-//W3C//DTD SVG 20010904//EN"
 "http://www.w3.org/TR/2001/REC-SVG-20010904/DTD/svg10.dtd">
<svg style="background-color: black;" version="1.0" xmlns="http://www.w3.org/2000/svg"
 width="1080.000000pt" height="2075.000000pt" viewBox="0 0 1080.000000 2075.000000"
 preserveAspectRatio="xMidYMid meet">

<g transform="translate(0.000000,2075.000000) scale(0.100000,-0.100000)"
fill="#ffffff" stroke="none">
<path d="M6405 15531 c-97 -59 -230 -286 -341 -585 -287 -768 -547 -2200 -714
-3930 -21 -218 -21 -266 3 -266 36 1 41 18 89 382 156 1171 383 2360 590 3078
107 373 224 699 311 865 25 47 26 48 20 15 -3 -19 -19 -79 -34 -134 -26 -90
-27 -101 -14 -132 22 -54 79 -68 127 -32 37 27 142 395 154 538 8 91 -6 147
-45 189 -24 25 -37 31 -73 31 -24 0 -56 -8 -73 -19z"/>
<path d="M6085 12640 c-4 -6 -11 -86 -16 -178 -25 -458 50 -1435 207 -2692
129 -1035 202 -1479 251 -1527 54 -54 153 -13 153 64 0 41 -33 233 -134 783
-99 541 -201 1221 -295 1975 -64 506 -101 962 -107 1313 -2 140 -6 258 -10
263 -7 12 -41 11 -49 -1z"/>
<path d="M5268 12098 c-40 -31 -309 -1036 -502 -1878 -247 -1078 -402 -1885
-477 -2489 -39 -318 -50 -468 -56 -776 -5 -262 -3 -327 11 -420 53 -344 171
-517 363 -533 70 -5 132 8 208 46 99 49 326 305 491 556 l39 59 5 -209 c5
-202 6 -209 26 -212 43 -6 47 14 52 289 l5 261 79 126 c69 111 79 131 74 161
-8 52 -43 84 -86 78 -19 -2 -44 -7 -54 -12 -19 -8 -19 2 -12 426 4 239 11 603
16 809 11 480 5 530 -63 530 -21 0 -59 -18 -69 -33 -22 -35 -18 -483 13 -1520
l11 -357 -124 -173 c-224 -313 -390 -507 -486 -568 -196 -124 -274 140 -258
886 10 509 74 1060 226 1961 141 831 372 1967 536 2632 66 268 82 347 73 358
-14 17 -21 17 -41 2z"/>
<path d="M5998 10849 c-10 -6 -18 -22 -18 -37 0 -56 100 -725 110 -737 12 -15
46 -9 53 8 2 7 1 39 -4 72 -4 33 -22 197 -39 365 -17 167 -36 312 -41 322 -11
20 -35 23 -61 7z"/>
</g>
</svg>
