<?xml version="1.0" standalone="no"?>
<!DOCTYPE svg PUBLIC "-//W3C//DTD SVG 20010904//EN"
 "http://www.w3.org/TR/2001/REC-SVG-20010904/DTD/svg10.dtd">
<svg style="background-color: white;" version="1.0" xmlns="http://www.w3.org/2000/svg"
 width="1080.000000pt" height="1994.000000pt" viewBox="-20 40 1080.000000 1994.000000"
 preserveAspectRatio="xMidYMid meet">

<g transform="translate(0.000000,2025.000000) scale(0.100000,-0.100000)"
fill="#000000" stroke="none">
<path d="M5318 14625 c-14 -8 -59 -59 -100 -112 -80 -108 -148 -180 -220 -233
-64 -48 -83 -102 -74 -214 4 -45 43 -376 87 -736 141 -1153 229 -2010 308
-2990 63 -775 70 -1317 21 -1702 -11 -92 -18 -179 -14 -193 8 -32 49 -65 81
-65 24 0 25 -2 19 -47 -3 -27 -15 -145 -26 -263 -43 -450 -114 -956 -195
-1390 -77 -404 -128 -613 -236 -957 -73 -230 -75 -251 -33 -267 36 -14 56 18
121 199 112 314 193 589 268 920 113 498 263 1399 295 1780 24 288 6 375 -79
375 -19 0 -21 5 -16 38 32 225 44 852 26 1317 -40 1025 -147 2642 -211 3185
-6 47 -33 245 -61 441 l-51 356 49 49 c59 60 192 241 229 313 26 49 27 56 15
99 -7 26 -20 55 -29 65 -42 46 -121 61 -174 32z"/>
<path d="M5506 14184 c-11 -11 -14 -27 -11 -52 3 -20 14 -109 25 -196 15 -132
22 -163 40 -180 19 -19 22 -20 48 -6 20 12 28 24 30 50 4 55 -54 381 -69 391
-21 13 -46 11 -63 -7z"/>
<path d="M4995 9188 c-32 -17 -45 -39 -45 -74 0 -73 79 -111 138 -67 39 29 43
93 8 128 -27 27 -67 32 -101 13z"/>
</g>
</svg>
