<?xml version="1.0" standalone="no"?>
<!DOCTYPE svg PUBLIC "-//W3C//DTD SVG 20010904//EN"
 "http://www.w3.org/TR/2001/REC-SVG-20010904/DTD/svg10.dtd">
<svg style="background-color: white;" version="1.0" xmlns="http://www.w3.org/2000/svg"
 width="1080.000000pt" height="2077.000000pt" viewBox="0 0 1080.000000 2077.000000"
 preserveAspectRatio="xMidYMid meet">

<g transform="translate(0.000000,2077.000000) scale(0.100000,-0.100000)"
fill="#000000" stroke="none">
<path d="M6745 15672 c-80 -39 -119 -91 -142 -191 -16 -66 -18 -123 -17 -451
1 -206 6 -458 13 -560 56 -877 147 -1788 286 -2850 30 -234 109 -850 175
-1370 137 -1081 172 -1346 235 -1753 24 -160 43 -292 41 -294 -2 -2 -39 5 -82
16 -131 33 -270 44 -483 38 -232 -6 -407 -29 -756 -98 -265 -53 -416 -79 -452
-79 -19 0 -14 11 44 87 79 105 93 136 93 205 0 138 -64 206 -202 216 -47 3
-68 9 -68 18 0 7 32 110 70 228 79 244 86 293 47 366 -43 81 -137 101 -235 51
-132 -68 -347 -295 -477 -506 -90 -145 -105 -179 -105 -243 0 -134 86 -200
281 -217 l77 -7 -2 -95 -1 -95 -305 -296 c-445 -433 -721 -717 -1105 -1142
-328 -363 -567 -621 -572 -617 -11 12 396 963 735 1717 302 674 312 695 562
1225 328 695 478 1049 539 1275 38 135 22 220 -48 267 -166 112 -530 -202
-1075 -927 -494 -658 -988 -1534 -1177 -2089 -32 -94 -31 -121 7 -121 27 0 24
-4 80 140 76 199 297 625 489 945 101 168 364 561 494 738 364 496 766 939
1002 1104 34 23 66 43 70 43 12 0 -26 -129 -69 -235 -78 -192 -192 -427 -653
-1345 -451 -897 -739 -1491 -1054 -2175 -359 -777 -435 -1006 -376 -1127 11
-24 35 -52 53 -63 46 -27 139 -26 203 3 55 25 129 99 829 822 211 217 661 670
1000 1005 l618 610 126 6 c91 5 211 22 423 63 475 89 779 122 1049 113 91 -3
199 -13 240 -22 92 -19 203 -55 211 -68 4 -5 12 -44 19 -86 25 -160 152 -779
195 -952 88 -354 203 -705 256 -782 43 -61 68 -76 133 -77 54 0 61 3 96 38 75
75 108 267 96 562 -13 299 -43 495 -117 745 -66 221 -127 347 -237 488 -40 50
-136 141 -192 180 -16 11 -25 66 -64 382 -64 520 -63 515 -196 1873 -154 1572
-247 2638 -285 3267 -23 385 -56 1103 -53 1138 2 27 13 8 65 -113 66 -155 277
-671 373 -911 188 -469 436 -1059 457 -1088 38 -50 95 -71 162 -61 102 17 161
82 161 179 0 28 -7 68 -15 88 -8 21 -68 187 -134 368 -225 622 -371 980 -721
1765 -149 334 -215 467 -284 573 -89 136 -134 171 -231 181 -53 6 -67 3 -120
-22z m-1550 -6949 c-7 -27 -19 -67 -25 -90 -10 -41 -12 -43 -50 -43 l-40 0 28
43 c43 66 93 137 97 137 2 0 -2 -21 -10 -47z m2542 -1083 c100 -149 182 -415
212 -692 16 -145 25 -433 16 -523 l-8 -80 -14 40 c-67 189 -191 747 -243 1094
-17 108 -32 211 -36 230 l-6 34 24 -29 c14 -16 38 -49 55 -74z"/>
<path d="M8230 12147 c-50 -25 -28 -117 28 -117 55 0 82 70 42 110 -23 23 -36
24 -70 7z"/>
<path d="M2513 6965 c-37 -26 -25 -99 17 -106 34 -7 70 11 76 38 15 60 -44
103 -93 68z"/>
</g>
</svg>
