<svg version="1.1" viewBox="0.0 0.0 960.0 540.0" fill="none" stroke="none" stroke-linecap="square" stroke-miterlimit="10" xmlns:xlink="http://www.w3.org/1999/xlink" xmlns="http://www.w3.org/2000/svg"><clipPath id="g2b259cc47c2_0_0.0"><path d="m0 0l960.0 0l0 540.0l-960.0 0l0 -540.0z" clip-rule="nonzero"/></clipPath><g clip-path="url(#g2b259cc47c2_0_0.0)"><path fill="#000000" d="m0 0l960.0 0l0 540.0l-960.0 0z" fill-rule="evenodd"/><path fill="#000000" d="m109.483986 214.75645l0 0c0 -15.255539 12.367058 -27.62259 27.622597 -27.62259l110.48709 0l0 0c7.3259583 0 14.351883 2.9102173 19.53212 8.090469c5.180237 5.180237 8.090485 12.2061615 8.090485 19.53212l0 110.487076c0 15.255554 -12.367065 27.62262 -27.622604 27.62262l-110.48709 0c-15.255539 0 -27.622597 -12.367065 -27.622597 -27.62262z" fill-rule="evenodd"/><path stroke="#ffffff" stroke-width="1.0" stroke-linejoin="round" stroke-linecap="butt" d="m109.483986 214.75645l0 0c0 -15.255539 12.367058 -27.62259 27.622597 -27.62259l110.48709 0l0 0c7.3259583 0 14.351883 2.9102173 19.53212 8.090469c5.180237 5.180237 8.090485 12.2061615 8.090485 19.53212l0 110.487076c0 15.255554 -12.367065 27.62262 -27.622604 27.62262l-110.48709 0c-15.255539 0 -27.622597 -12.367065 -27.622597 -27.62262z" fill-rule="evenodd"/><path fill="#ffffff" d="m186.09709 276.91998l5.125 -13.359375l1.90625 0l5.46875 13.359375l-2.015625 0l-1.546875 -4.046875l-5.59375 0l-1.46875 4.046875l-1.875 0zm3.859375 -5.484375l4.53125 0l-1.40625 -3.703125q-0.625 -1.6875 -0.9375 -2.765625q-0.265625 1.28125 -0.71875 2.546875l-1.46875 3.921875z" fill-rule="nonzero"/><path fill="#000000" fill-opacity="0.0" d="m275.21628 270.0l409.5748 0" fill-rule="evenodd"/><path stroke="#999999" stroke-width="1.0" stroke-linejoin="round" stroke-linecap="butt" stroke-dasharray="4.0,3.0" d="m275.21628 270.0l409.5748 0" fill-rule="evenodd"/><path fill="#000000" fill-opacity="0.0" d="m767.6493 201.2126l0 -14.078735" fill-rule="evenodd"/><path stroke="#ffffff" stroke-width="1.0" stroke-linejoin="round" stroke-linecap="butt" stroke-dasharray="1.0,3.0" d="m767.6493 197.42259l0 -10.288727" fill-rule="evenodd"/><path fill="#ffffff" stroke="#ffffff" stroke-width="1.0" stroke-linecap="butt" d="m767.6493 200.7126c-0.9085083 0 -1.6450195 -0.736496 -1.6450195 -1.6450043c0 -0.9085083 0.73651123 -1.6450043 1.6450195 -1.6450043c0.9085083 0 1.6449585 0.736496 1.6449585 1.6450043c0 0.9085083 -0.7364502 1.6450043 -1.6449585 1.6450043z" fill-rule="nonzero"/><path fill="#000000" d="m684.78314 270.0l0 0c0 -45.7657 37.100464 -82.866135 82.86615 -82.866135l0 0c21.977478 0 43.05481 8.730515 58.595215 24.27092c15.540405 15.540421 24.270935 36.617752 24.270935 58.595215l0 0c0 45.765717 -37.100403 82.86615 -82.86615 82.86615l0 0c-45.765686 0 -82.86615 -37.100433 -82.86615 -82.86615z" fill-rule="evenodd"/><path stroke="#999999" stroke-width="1.0" stroke-linejoin="round" stroke-linecap="butt" stroke-dasharray="4.0,3.0" d="m684.78314 270.0l0 0c0 -45.7657 37.100464 -82.866135 82.86615 -82.866135l0 0c21.977478 0 43.05481 8.730515 58.595215 24.27092c15.540405 15.540421 24.270935 36.617752 24.270935 58.595215l0 0c0 45.765717 -37.100403 82.86615 -82.86615 82.86615l0 0c-45.765686 0 -82.86615 -37.100433 -82.86615 -82.86615z" fill-rule="evenodd"/><path fill="#999999" d="m762.7869 276.92l0 -13.359375l5.015625 0q1.53125 0 2.453125 0.40625q0.921875 0.40625 1.4375 1.25q0.53125 0.84375 0.53125 1.765625q0 0.859375 -0.46875 1.625q-0.453125 0.75 -1.390625 1.203125q1.203125 0.359375 1.859375 1.21875q0.65625 0.859375 0.65625 2.015625q0 0.9375 -0.40625 1.75q-0.390625 0.796875 -0.984375 1.234375q-0.578125 0.4375 -1.453125 0.671875q-0.875 0.21875 -2.15625 0.21875l-5.09375 0zm1.78125 -7.75l2.875 0q1.1875 0 1.6875 -0.140625q0.671875 -0.203125 1.015625 -0.671875q0.34375 -0.46875 0.34375 -1.171875q0 -0.65625 -0.328125 -1.15625q-0.3125 -0.515625 -0.90625 -0.703125q-0.59375 -0.1875 -2.03125 -0.1875l-2.65625 0l0 4.03125zm0 6.171875l3.3125 0q0.859375 0 1.203125 -0.0625q0.609375 -0.109375 1.015625 -0.359375q0.421875 -0.265625 0.6875 -0.75q0.265625 -0.484375 0.265625 -1.125q0 -0.75 -0.390625 -1.296875q-0.375 -0.546875 -1.0625 -0.765625q-0.671875 -0.234375 -1.953125 -0.234375l-3.078125 0l0 4.59375z" fill-rule="nonzero"/></g></svg>